<?xml version="1.0" encoding="UTF-8"?>
<svg version="1.1" viewBox="0 0 2048 1124" width="1280" height="1280" xmlns="http://www.w3.org/2000/svg">
<path transform="translate(878)" d="m0 0h912l-2 6-16 33-25 50-11 23-10 21-10 19-54 108-13 28-84 168-11 23-16 33-10 20-10 19-13 26-10 21-10 19-1 6 19 11 28 17 32 19 28 17 54 32 32 19 28 17 32 19 28 17 59 35 32 19 28 17 32 19 25 15 23 14 19 12 4 5-46-1h-611l-2-2v-412l1-377 1-130h-2l-3 9-20 40-11 23-15 30-13 28-20 40-11 23-19 38-13 28-3 8-1 10-1 642-1 1h-86l-188 1h-45l-1-1v-912z" fill="#62A4D8"/>
<path transform="translate(91)" d="m0 0h784l-5 5-10 7-16 10-34 22-25 16-51 33-22 14-26 17-19 12-23 15-25 16-20 13-25 16-46 30-16 10-10 6 10 7 18 14 13 10 18 14 13 10 18 14 16 12 14 11 18 14 13 10 18 14 26 20 18 14 30 23 1 1v494l-1 1-452 1h-293l1-4 10-7 44-29 43-29 22-14 63-42 26-17 44-29 43-29 22-14 27-18-13-9-19-14-21-16-38-28-12-9-18-13-32-24-38-28-21-16-14-10-19-14-9-7-1-11v-490z" fill="#5388C4"/>
<path transform="translate(91)" d="m0 0h784l-5 5-10 7-16 10-34 22-25 16-51 33-22 14-26 17-19 12-23 15-25 16-20 13-25 16-46 30-16 10-10 6 2 2-12 6-17 11-16 10-22 14-46 30-20 13-17 11-22 14-34 22-47 30-26 17-22 14-17 11-25 16-36 24-23 15-6 4h-2l-1 2-2-2-1-11v-490z" fill="#5388C4"/>
<path transform="translate(501,244)" d="m0 0 6 1 14 11 13 10 18 14 13 10 18 14 17 13 13 10 36 28 13 10 18 14 17 13 18 14 26 20v4l-36 26-54 36-44 29-43 29-11 7-36 24-20 13-44 29-36 24-40 26-17 11-13 8h-5l-17-12-21-16-57-42-13-10-14-10-28-21-38-28-21-16-14-10-19-14-6-4v-3l19-12 45-30 25-16 17-11 25-16 23-15 50-32 34-22 19-12 66-43 17-11 22-14 38-24z" fill="#26509D"/>
<path transform="translate(1198,275)" d="m0 0h1l-1 649-1 1h-318l6-11 20-40 11-23 22-45 13-28 11-22 11-23 13-26 11-23 49-101 26-53 28-56 11-23 22-45 11-23 15-30 11-23 12-25 9-19z" fill="#26509D"/>
<path transform="translate(1483,623)" d="m0 0 11 6 14 8 28 17 32 19 28 17 49 29 32 19 28 17 32 19 28 17 59 35 32 19 28 17 32 19 25 15 23 14 19 12 4 5-46-1h-376l-232-1 2-6 22-44 11-23 16-34 17-34 10-19 35-70 11-23 17-34z" fill="#26509D"/>
<path transform="translate(878,232)" d="m0 0h3l6 8 5 11v2l7-1 2-1 10 3 6 3 16 16 12 2 2 1v2l4-1 10 3 5 4 4 2 3 3 4 3 15 4 4 1 1 2 7 3 5 4 15 7 5 5v2l11 3 5 3v2l5 1 3 1v2l16 4 10 2 3 2h10l7-2 10 1h8l5-1 5 2 4-1 8-5 5 1 8 4 2 5 2-1-1 7-3 12 1 5-18 36-11 23-12 25-26 53-28 56-11 23-12 24-11 23-19 39-14 29-16 33-10 21-8 16-17 35-11 23-12 25-26 53-9 17-2 3 43 1v1h-45l-1-1v-688z" fill="#5995CC"/>
<path transform="translate(742,427)" d="m0 0 4 3v494l-1 1h-52l-97-1-4-2-2-4 1-6h2v-9h-2l1-11-1-5v-8l2-6v-10h-2l-3-5-1-11-2-9-3-9-6-22-2-3-3-16-1-5v-5l-1-2 1-8-1-3 1-3-1-3v-7l-1-4-3-1-1-16-2-5-2-11-3-7-3-12 1-6 1-3-2-16v-19l1-9 1-20-1-5v-13l5 1-5-6-3-3-1-2v-11l1-5 2-11 3-3h3l3-8 6-5 3-3h2l2-5 10-8 57-38v-2l19-12 13-9 15-10 19-13 18-13 14-10z" fill="#4979B8"/>
<path transform="translate(91)" d="m0 0h96l1 3-6 1 1 9-1 2h-2v6l3 7v3l4 1 5 5 4 8 2 12 3 9 4 7 1 8 2 2 5 18 4 8 3 10 1 10 6 10 7 10 5 10 1 1 1 14v6l2 6 2 1v3h2l7 8 6 18 1 7 5 6v11l3 11 2 10 4 5 1 5 4 5 5 13 8 7 7 4v2l4 2 1 2-8 2-2 1 3 3v3l4 2 4 8 4 10 2 3v3h2l-1 9 2 3-12 12h-2l-2 5h-2l-1 3-3 2h-3v2l-7 4-68 44-7 5v3l-19 12-17 11-25 16-22 15-23 15-6 4h-2l-1 2-2-2-1-11v-490z" fill="#4979B8"/>
<path transform="translate(1331,363)" d="m0 0 1 2h3l3 13 4 1 2 11v4l4-1 1-2 4-1h10l8 4 1 4h2l1 4h2l1 3 3 1 3 3 6 3h8l-2-6h-2l-1-4 5 3 5 1 3 2v2l8 4v2l12 3 4 5 5 1 5 4 19 4h4v2h11l11 6 1 1h6l4-2 8-1 10-3 8-4 13-4 17-1 4-4 2-3 9-3 5-1v-2l7-4 3 1-1 3h2l-3 9-5 13-24 49-11 23-12 24-10 19-13 26-10 21-10 19-3 9-12 22-22 44-11 23-34 68-10 19-14 28-13 28-22 45-9 17-2 5h23v1h-26l-2-2v-412l2-145z" fill="#5388C4"/>
<path transform="translate(878)" d="m0 0h451l3 6v11l-1 9h-1v-21h-2l-3 9-20 40-11 23-15 30-13 28-20 40-7 15-2-1 8-17-1-3-9 5-8 4h-6l-5 4-1 2-9-1-7-1-6 4-4 3-11 1-15 1-5-3 1-2 9-3 1-2h-8l-7-2-8-5 1-2-9-2v-2l-5-2-9-5-10-8-9-5-1-3-4-2-21-10-8-3-13-7-4-3-12-4-7-3-7-2-4-2-2-2-9-3-10-6h-11l-6-4-7-4-15-1-6-3-5-2v-2l-5-2-7-2-10-8-4-4-8-3-3-3-9-2-3-3-1-2-11-3 5 9 3 3-10-2 3 6 2 3-8 2-4-7v-4l-3-1-1 2-1 86h-1v-134z" fill="#6AB2E3"/>
<path transform="translate(463)" d="m0 0h412l-5 5-10 7-16 10-34 22-25 16-51 33-22 14-26 17-19 12-23 15-25 16-20 13-9 6-2-1 5-5-2-2h-7l-4 2-15 1-8-6-11-4-14-1-7-2-10 1-2-1v-2h-2v-2h-2l-5-10-4-7-3-4-2-11-1-9-4-7v-2h-2l-1-9-3-7 1-12h-2l-3-8-5-7-3-3-1-7-5-9-3-9-3-5-1-7 4 1 5 3 2-6v-2l-3-1-2-1v-5h-2l-2-7 2-9z" fill="#62A4D8"/>
<path transform="translate(400,657)" d="m0 0h3v2h-2l-2 4-4 3h-2l-2 4-10 7-11 8-6 3-2 3h-2l-2 8-3 1-3 4h-2l-2 4-1 1-12 1 2-3h-7l-9 6-1 4 7 3 3 3 2 1v2l5 4v2h2v2l5 2 4 3-1 4 2 1v4h2l4 15-1 8 1 4-1 5 1 10-1 8-2 2v11l1 8-1 2-1 15 1 5 4 16v7l4 2 2 12-4 10-1 15-1 3 2 5-2 3-3 6 9 2 1 1 7 1v1l-77 1h-293l1-4 10-7 44-29 43-29 22-14 63-42 26-17 44-29 43-29 22-14 27-18-1-2 10-5 23-15 20-13z" fill="#62A4D8"/>
<path transform="translate(1334,220)" d="m0 0 4 4h7l9 11h4l10 3 10 8 2 1v2h2l1 3 19 8 5 5 2 3 9 2 9 4 6 4 8 4v-2h2v2l6 2 12 7 5 4 5 3 3 5 5 4 19 4 14 2 5 2v-2l7-1h7l3-1 2 1v2l-8 4h3l2-1 9 2 3-1 11 1 9-3 8-4 9-4 4-1 6-7h2l2-4 4-4 3-1 17-1 4-2 7-2 6-5 4-2 2-4 4-6h2l2-4 5-6 5-2-2 6-4 10-2 6-14 29-61 122-1-3 6-13h-2v-3l-5 2-4 1v2l-8 3-6 2-4 6-2 1-17 1-16 5-10 5-9 2h-5l-3 2h-6l-4-3-7-2-1-2h-8l-4-2-13-2-9-2-3-2v-2l-8-1-5-5-10-4v-2l-5-2-3-2v-2l-6-2-4-2h-2v2h2l2 6-9 1-8-5v-2l-4-1v-3h-2l-1-4h-2l-1-4-5-2-3-1h-14l-1 3h-4l-2-15-4-1-2-4-1-9h-3l-1 2-1 61h-1v-81l1-108 1-16 3-1z" fill="#5995CC"/>
<path transform="translate(878,469)" d="m0 0 4 1 1 6h-2l4 10 4 5 8 5-2 4-3 2 3 2 10-1 1-1h5l-5 5-3 5 3 3 13 5 5 2 4 2 5 4 7 1 8 1-2-5-9-5 1-2 13 2 5 2v2l5 1 12 6v2l4 1 4 2v2h7l5 2-3 3-6 1-1-2-3 3 12 3 6 4 4 2 9 2v2l5 1 4 2v2l5 2 9 2 4-4h3l1 7-4 17-3 12-1 7h-2l-3 9-13 28-13 27-2 8-13 26-11 23-12 25-8 16-17 35-11 23-12 25-26 53-9 17-2 3 43 1v1h-45l-1-1v-455z" fill="#4979B8"/>
<path transform="translate(315)" d="m0 0h148l1 5-2 9 1 6h2l1 4 2 1 3 4-2 6-2 1v-2l-5-2-3-1 3 10 4 6 2 6 4 8 1 9 3 1 6 8 1 7h2l1 5-1 8 3 6v9h2l5 9 2 12 1 8 6 8 4 10 1 3h2v2h2v2h7l7-1 5 2 14 1 13 5 6 5 15-1 4-2h7l3 4-5 4-4 4-25 16-32 21-16 10-10 6 2 2-12 6-17 11-16 10-22 14-46 30-20 13-17 11-22 14-3 2h-5l5-4 15-10 20-13 37-24 6-8 3-1v-2l7-6 8-11 1-6-4-16-3-8-2-5-5-1-3-5-1-3h-2l-5-5-8-6-4-4-3-14v-2l-4-8-2-8v-4l-2-1-2-6-3-15 2-6h-2l-5-13-2-4v-6h-2v-2h-2l-4-10 1-2-5-2-5-7-2-4v-5l-4-5-4-11-3-6-3-3v-8l-2-5-5-15v-5l-2-2v-8h-2v-2h-2l-4-6-4-7-1-1v-10z" fill="#5995CC"/>
<path transform="translate(1330,530)" d="m0 0 4 2 3 10 2 2 1 8 8 16h3v-2l3 1 2 4 6 2 4-1h3v2l4 2 2 3v3l4 2 12 9 8 2 4-1v2h8l5-1 11 1h19l11 1 4 2 7-4 4-2 5-5 3-1 1-3h2l2-4 4-6 7-5 4-8 6-7 3-6 6-4h4l-2 9-12 24-10 21-10 19-3 9-12 22-22 44-11 23-34 68-10 19-14 28-13 28-22 45-9 17-2 5h23v1h-26l-2-2v-389z" fill="#4878B7"/>
<path transform="translate(473,609)" d="m0 0h2l-1 3-6 3-4 9-5 6-3 10-4 6-5 10h-2l-2 9v5l4 3 4 2 1 6 3 6 1 4 3 5 2 9-1 7-3 10v9l4 18v10l-1 13v34l4-1 2 13 1 3-1 7 3 24 3 11 1 4-1 3 1 3v6l4 7 1 5-3 9-2 4 1 8-1 3v5l4 3 6 1v1h-113l-7-1-3-2-7-1v-3l4-8-2-4 2-18 3-6 1-6-2-10-3-2-2-10-3-13-1-6 1-14 1-7-1-4v-10l3-5v-11l-1-7 1-3-1-4 1-8-3-10v-4h-2l-2-7-1-3-7-4v-2h-2v-2l-3-1v-2l-3-1 1-2-5-2v-2l-5-1-3-3 3-5 8-5h8l-2 3 11-1 5-5 3-4h3l-1-3 3-5h2l2-4 10-6 10-7 8-6 9-9h2l-1-3 15-10 44-29z" fill="#5995CC"/>
<path transform="translate(878,357)" d="m0 0h2l2 5 2 10 4 10 7 3 1-6 2-1 4 3 1 4 6-1 2 1v3h6l5 5 9 6v2l5-1 9 2 8 1 3 1v2l11 1 7 3v2h2l4 4 12 6 2 4 9 2 10 5 2 2v4l14 2 5-1h7l10 4 9 1 9 3 1 2-1 2 3-1 4 4 7 2 7 8 1 4v9l1 3-2 10 2 1-34 68-11 23-12 24-11 23-19 39-3 4 1-5 13-27 12-26 4-9h2v-8l4-15 3-14v-6l-5 1-2 4-11-3-3-2v-2l-9-3v-2l-12-2-5-4-15-5 4-4 3 2 6-2-5-2-6-1-2-2-6-3v-2l-5-2-12-5v-2l-13-2-5-1 9 6 1 5 2 1-10-1-7-1-7-6-5-1-11-5-5-2-3-3 4-6 4-3-4-1-1 2-10 1-4-3 4-2 1-4-9-6-3-4-3-6v-4h2l-2-5-4-1v-110z" fill="#5388C4"/>
<path transform="translate(1458)" d="m0 0h332l-2 6-16 33-25 50-5 11-2-1 13-28-3-2-3 1v2l-8 3-3 3-6 5-2 5-5 5-9 1-3-1h-8l-8 6-4 4-6 2-8 5h-5v2l-3 3-6 1v-2l-7 3-4-1v-4l10-3 2-3 15-3 4-2-1-2h-2v-2l-9 2-2-2 4-2v-2l5-2-4-1h-6l-5 2-7 1-6 2-11 3h-3l-5-1h-7l-13-3-4-3v-2l-10-1-7-3v-2l-6-2-3-2-9-2-7-1v-2l-5-1v-2l-4-1v-2h-3l-3-4 1-5h-2v-2h-7l-6-3-11-1-1-4-7-2-6-3-5-2-4-4v-2h-5v-2l-6-2-9-2-6-1v-2l-8-1-2-2-4-1v-2h-6v-2h-7l-1-5 10-4-4-4-6-1v-1l7-1z" fill="#6AB2E3"/>
<path transform="translate(1198,275)" d="m0 0h1l-1 20-1 24-1 15-1 10v10l1 10v53l-1 11h-2v8l-1 4-1 11-10 5-3-1v-2l-2-1 1-3-6-4v-3l-6 2v5l3 1-1 3h-9l-1 4-5 6-1 6-4 5-4 1-2 4-6 5-7 11-5 5-5 3h-2l-2 7-3 3-1 5-6 2-1-1-3 7h-3l-1 7-5 3-1 2h-2l-1 3-4 4-6 11-6 9-7 11-8 14-9 21-5 7-4 10-4 8-9 16-8 16-5 7-4 9-7 13-6 10-8 14-7 15-3 11-4 8-5 12-16 31-10 19-11 22-5 12-8 15-5 15-3 8-4 5-3 8-6 8-3 7-6 4-2 3-7 1 6-11 20-40 11-23 22-45 13-28 11-22 11-23 13-26 11-23 49-101 26-53 28-56 11-23 22-45 11-23 15-30 11-23 12-25 9-19z" fill="#23428C"/>
<path transform="translate(501,244)" d="m0 0 6 1 8 6 1 4-6 1-10 2 1 2-9 5-14 11-20 13-16 10-20 14-7 6-9 7-11 8-16 8-10 7-5 5-4 1-2 5-9 7-9 5-7 6-6 4-7 6-11 8-15 10-25 15-11 8-9 5-8 6h-2v2l-11 7-13 9-8 5-2 2h-3v2l-7 4h-2v2h-2v2l-13 9-15 11-1 2h-2l-2 5-7 5-9 14-2 8 1 11-6-1-17-13-14-10-10-7v-3l19-12 45-30 25-16 17-11 25-16 23-15 50-32 34-22 19-12 66-43 17-11 22-14 38-24z" fill="#23428C"/>
<path transform="translate(670)" d="m0 0h205l-5 5-10 7-16 10-34 22-25 16-34 22-2-1 6-5-3-3-6-2-3-2-7-1-3-3h-11l-2-3-21-3h-19l-5-1-9-2-9-13 1-3-2-5v-4l5-1 3 1 1 2v6l4 1 1-5-3-8v-2l-5-1v-2l-2-1-1-3-3-2 1-7 2-6 7 2-4 4-3 2 11 6 5 5 2 1v-2l-5-5-2-6z" fill="#6AB2E4"/>
<path transform="translate(138,831)" d="m0 0 6 2 6 4 2 2v5l9 1 3 1h7l5 1h1v11l2 4h2l3 8 2 3-1 7-5 6-3 9-5 12h-2l-1 4-4 2h-4l-1 4-2 5v2h53l82 1v1h-293l1-4 10-7 44-29 43-29 22-14 15-10z" fill="#6AB2E4"/>
<path transform="translate(1483,623)" d="m0 0 6 3-1 4-5 3h-3v3l-3 3-2 6-4 10-8 13-12 27-5 13-5 11-6 13-5 10-9 17-12 26-8 14-4 6-4 10-12 25-4 13-6 16-2 4-3 17-3 9-5 7h-2l-1 7-2 2 1 2-4 4-4 2v1l-5 1h-8l2-6 22-44 11-23 16-34 17-34 10-19 35-70 11-23 17-34z" fill="#23428D"/>
<path transform="translate(733,423)" d="m0 0 7 2 2 4-16 12-17 12-19 13-39 26-44 29-43 29-11 7-36 24-20 13-44 29-36 24-40 26-17 11-13 8-3-1 24-16 10-8 4-3h2v-2l14-9 7-4 18-12 5-4h2v-2l8-4 12-9 9-5 12-9 8-5 8-7 8-4 3-1v-2l14-9 5-1v-2l9-5 12-7 6-4h2v-2l8-4 9-6 5-3 1-2 9-5 11-6 8-7 6-4 11-6 7-5 7-4h2v-2l7-4 5-3 8-7 14-10 6-6 9-5 7-5h2v-2l11-6 4-1 2-4 6-5 10-2 1-4 4-5h2l1-5 2-2z" fill="#23438D"/>
<path transform="translate(400,657)" d="m0 0h3v2h-2l-2 4-4 3h-2l-2 4-10 7-11 8-6 3-2 3h-2l-2 8-3 1-3 4h-2l-2 4-1 1-12 1 2-3h-5l-1-2 5-5 9-6-1-2 10-5 23-15 20-13z" fill="#61A2D7"/>
<path transform="translate(491,246)" d="m0 0h2l-1 4-17 11-16 10-22 14-46 30-20 13-17 11-22 14-3 2h-5l5-4 15-10 20-13 37-24 29-19 14-9 25-16 19-12z" fill="#5FA0D5"/>
<path transform="translate(1197,295)" d="m0 0h1v119h-2l-1-56-1-9v-11l1-8 1-11z" fill="#2F5BA4"/>
<path transform="translate(386,314)" d="m0 0h3l-1 3-34 22-22 14-3 2h-5l5-4 15-10 20-13 17-11z" fill="#5995CC"/>
<path transform="translate(491,246)" d="m0 0h2l-1 4-17 11-16 10h-3l-5 3-2-1 23-15z" fill="#61A2D7"/>
<path transform="translate(1036,601)" d="m0 0 1 2-14 29-17 35-3 6-1-3 14-29 12-26 4-9h2z" fill="#548BC5"/>
<path transform="translate(296,372)" d="m0 0 2 1-5 5-9 6-4 1-18 11-6 4-2-1 15-10 14-9 4-3h3v-2z" fill="#5792CA"/>
<path transform="translate(1483,623)" d="m0 0 6 3-1 4-5 3h-3v3l-3 3-2 6-4 1 2-6 8-14z" fill="#24458F"/>
<path transform="translate(281,383)" d="m0 0v3l-19 12-23 15v-3l11-7 2-3 7-3 19-12z" fill="#5185C1"/>
<path transform="translate(921,71)" d="m0 0 7 1 5 5 8 1 1 3-8-1-9-3v-2h-3z" fill="#6AB2E4"/>
<path transform="translate(344,341)" d="m0 0 2 1-1 3-16 10h-5l5-4z" fill="#5A96CD"/>
<path transform="translate(505,588)" d="m0 0 2 1-25 17-6 3 1-3 20-13z" fill="#5A96CE"/>
<path transform="translate(249,402)" d="m0 0 2 1-12 8-5 5-5 3 2-4 7-6z" fill="#558CC6"/>
<path transform="translate(455,20)" d="m0 0 7 3v4l-3 2h-3l-1-6z" fill="#62A4D8"/>
<path transform="translate(321,356)" d="m0 0 2 1-5 5-6 4h-5l5-4z" fill="#5A97CE"/>
<path transform="translate(449,12)" d="m0 0 5 2 3 3-2 3-5-2-2-2z" fill="#62A4D8"/>
<path transform="translate(1152,363)" d="m0 0 1 4-8 16-1-4 5-11z" fill="#5C9AD0"/>
<path transform="translate(219,423)" d="m0 0v3l-8 5h-5l4-4 5-3z" fill="#5085C1"/>
<path transform="translate(1502,636)" d="m0 0 6 1 2 4-4 1-5-3z" fill="#254790"/>
<path transform="translate(395,308)" d="m0 0 4 1-5 4-5 2-2-2z" fill="#5C9AD0"/>
<path transform="translate(675,28)" d="m0 0 5 1 2 2v3l-6-1-2-4z" fill="#62A4D8"/>
<path transform="translate(1036,601)" d="m0 0 1 2-5 11h-2l1-6 1-2h2z" fill="#5892CB"/>
<path transform="translate(1419,265)" d="m0 0 8 1v2l-2 1h-7z" fill="#5995CC"/>
</svg>
